<svg width="1002" height="563" viewBox="0 0 1002 563" fill="none" xmlns="http://www.w3.org/2000/svg">
<path opacity="0.72" d="M0 0L53.5527 53.485" stroke="#13924E" stroke-width="5" stroke-linecap="round"/>
<path opacity="0.77" d="M53.5527 0L107.105 53.485" stroke="#13924E" stroke-width="5" stroke-linecap="round"/>
<path opacity="0.96" d="M107.105 0L160.658 53.485" stroke="#13924E" stroke-width="5" stroke-linecap="round"/>
<path opacity="0.38" d="M160.658 0L214.211 53.485" stroke="#13924E" stroke-width="5" stroke-linecap="round"/>
<path opacity="0.42" d="M214.211 0L267.764 53.485" stroke="#13924E" stroke-width="5" stroke-linecap="round"/>
<path opacity="0.79" d="M267.764 0L321.316 53.485" stroke="#13924E" stroke-width="5" stroke-linecap="round"/>
<path opacity="0.74" d="M374.869 0L321.316 53.485" stroke="#13924E" stroke-width="5" stroke-linecap="round"/>
<path opacity="0.65" d="M374.869 0L428.422 53.485" stroke="#13924E" stroke-width="5" stroke-linecap="round"/>
<path opacity="0.5" d="M481.975 0L428.422 53.485" stroke="#13924E" stroke-width="5" stroke-linecap="round"/>
<path opacity="0.88" d="M535.527 0L481.975 53.485" stroke="#13924E" stroke-width="5" stroke-linecap="round"/>
<path opacity="0.47" d="M589.08 0L535.527 53.485" stroke="#13924E" stroke-width="5" stroke-linecap="round"/>
<path opacity="0.47" d="M589.08 0L642.633 53.485" stroke="#13924E" stroke-width="5" stroke-linecap="round"/>
<path opacity="0.2" d="M696.186 0L642.633 53.485" stroke="#13924E" stroke-width="5" stroke-linecap="round"/>
<path opacity="0.59" d="M696.186 0L749.738 53.485" stroke="#13924E" stroke-width="5" stroke-linecap="round"/>
<path opacity="0.22" d="M749.738 0L803.291 53.485" stroke="#13924E" stroke-width="5" stroke-linecap="round"/>
<path opacity="0.68" d="M803.291 0L856.844 53.485" stroke="#13924E" stroke-width="5" stroke-linecap="round"/>
<path opacity="0.49" d="M856.844 0L910.397 53.485" stroke="#13924E" stroke-width="5" stroke-linecap="round"/>
<path opacity="0.47" d="M910.397 0L963.949 53.485" stroke="#13924E" stroke-width="5" stroke-linecap="round"/>
<path opacity="0.46" d="M963.949 0L1017.5 53.485" stroke="#13924E" stroke-width="5" stroke-linecap="round"/>
<path d="M53.5527 53.4849L0 106.97" stroke="#13924E" stroke-width="5" stroke-linecap="round"/>
<path opacity="0.89" d="M53.5527 53.4849L107.105 106.97" stroke="#13924E" stroke-width="5" stroke-linecap="round"/>
<path opacity="0.19" d="M107.105 53.4849L160.658 106.97" stroke="#13924E" stroke-width="5" stroke-linecap="round"/>
<path opacity="0.8" d="M160.658 53.4849L214.211 106.97" stroke="#13924E" stroke-width="5" stroke-linecap="round"/>
<path opacity="0.91" d="M214.211 53.4849L267.764 106.97" stroke="#13924E" stroke-width="5" stroke-linecap="round"/>
<path opacity="0.52" d="M267.764 53.4849L321.316 106.97" stroke="#13924E" stroke-width="5" stroke-linecap="round"/>
<path opacity="0.46" d="M321.316 53.4849L374.869 106.97" stroke="#13924E" stroke-width="5" stroke-linecap="round"/>
<path opacity="0.21" d="M428.422 53.4849L374.869 106.97" stroke="#13924E" stroke-width="5" stroke-linecap="round"/>
<path opacity="0.6" d="M428.422 53.4849L481.975 106.97" stroke="#13924E" stroke-width="5" stroke-linecap="round"/>
<path opacity="0.36" d="M481.975 53.4849L535.527 106.97" stroke="#13924E" stroke-width="5" stroke-linecap="round"/>
<path opacity="0.5" d="M535.527 53.4849L589.08 106.97" stroke="#13924E" stroke-width="5" stroke-linecap="round"/>
<path opacity="0.67" d="M589.08 53.4849L642.633 106.97" stroke="#13924E" stroke-width="5" stroke-linecap="round"/>
<path opacity="0.25" d="M642.633 53.4849L696.186 106.97" stroke="#13924E" stroke-width="5" stroke-linecap="round"/>
<path opacity="0.79" d="M696.186 53.4849L749.738 106.97" stroke="#13924E" stroke-width="5" stroke-linecap="round"/>
<path opacity="0.35" d="M749.738 53.4849L803.291 106.97" stroke="#13924E" stroke-width="5" stroke-linecap="round"/>
<path opacity="0.75" d="M856.844 53.4849L803.291 106.97" stroke="#13924E" stroke-width="5" stroke-linecap="round"/>
<path opacity="0.45" d="M856.844 53.4849L910.397 106.97" stroke="#13924E" stroke-width="5" stroke-linecap="round"/>
<path opacity="0.34" d="M910.397 53.4849L963.949 106.97" stroke="#13924E" stroke-width="5" stroke-linecap="round"/>
<path opacity="0.1" d="M963.949 53.4849L1017.5 106.97" stroke="#13924E" stroke-width="5" stroke-linecap="round"/>
<path opacity="0.15" d="M53.5527 106.97L0 160.455" stroke="#13924E" stroke-width="5" stroke-linecap="round"/>
<path opacity="0.96" d="M53.5527 106.97L107.105 160.455" stroke="#13924E" stroke-width="5" stroke-linecap="round"/>
<path opacity="0.18" d="M107.105 106.97L160.658 160.455" stroke="#13924E" stroke-width="5" stroke-linecap="round"/>
<path opacity="0.43" d="M160.658 106.97L214.211 160.455" stroke="#13924E" stroke-width="5" stroke-linecap="round"/>
<path opacity="0.88" d="M214.211 106.97L267.764 160.455" stroke="#13924E" stroke-width="5" stroke-linecap="round"/>
<path opacity="0.31" d="M267.764 106.97L321.316 160.455" stroke="#13924E" stroke-width="5" stroke-linecap="round"/>
<path opacity="0.25" d="M374.869 106.97L321.316 160.455" stroke="#13924E" stroke-width="5" stroke-linecap="round"/>
<path opacity="0.32" d="M428.422 106.97L374.869 160.455" stroke="#13924E" stroke-width="5" stroke-linecap="round"/>
<path opacity="0.68" d="M428.422 106.97L481.975 160.455" stroke="#13924E" stroke-width="5" stroke-linecap="round"/>
<path opacity="0.07" d="M481.975 106.97L535.527 160.455" stroke="#13924E" stroke-width="5" stroke-linecap="round"/>
<path opacity="0.71" d="M535.527 106.97L589.08 160.455" stroke="#13924E" stroke-width="5" stroke-linecap="round"/>
<path opacity="0.8" d="M589.08 106.97L642.633 160.455" stroke="#13924E" stroke-width="5" stroke-linecap="round"/>
<path opacity="0.33" d="M696.186 106.97L642.633 160.455" stroke="#13924E" stroke-width="5" stroke-linecap="round"/>
<path opacity="0.82" d="M696.186 106.97L749.738 160.455" stroke="#13924E" stroke-width="5" stroke-linecap="round"/>
<path opacity="0.95" d="M749.738 106.97L803.291 160.455" stroke="#13924E" stroke-width="5" stroke-linecap="round"/>
<path opacity="0.27" d="M856.844 106.97L803.291 160.455" stroke="#13924E" stroke-width="5" stroke-linecap="round"/>
<path opacity="0.48" d="M856.844 106.97L910.397 160.455" stroke="#13924E" stroke-width="5" stroke-linecap="round"/>
<path opacity="0.31" d="M910.397 106.97L963.949 160.455" stroke="#13924E" stroke-width="5" stroke-linecap="round"/>
<path opacity="0.75" d="M1017.5 106.97L963.949 160.455" stroke="#13924E" stroke-width="5" stroke-linecap="round"/>
<path opacity="0.1" d="M53.5527 160.455L0 213.94" stroke="#13924E" stroke-width="5" stroke-linecap="round"/>
<path opacity="0.54" d="M53.5527 160.455L107.105 213.94" stroke="#13924E" stroke-width="5" stroke-linecap="round"/>
<path opacity="0.35" d="M107.105 160.455L160.658 213.94" stroke="#13924E" stroke-width="5" stroke-linecap="round"/>
<path opacity="0.33" d="M214.211 160.455L160.658 213.94" stroke="#13924E" stroke-width="5" stroke-linecap="round"/>
<path opacity="0.93" d="M214.211 160.455L267.764 213.94" stroke="#13924E" stroke-width="5" stroke-linecap="round"/>
<path opacity="0.38" d="M267.764 160.455L321.316 213.94" stroke="#13924E" stroke-width="5" stroke-linecap="round"/>
<path opacity="0.8" d="M321.316 160.455L374.869 213.94" stroke="#13924E" stroke-width="5" stroke-linecap="round"/>
<path opacity="0.48" d="M374.869 160.455L428.422 213.94" stroke="#13924E" stroke-width="5" stroke-linecap="round"/>
<path opacity="0.74" d="M428.422 160.455L481.975 213.94" stroke="#13924E" stroke-width="5" stroke-linecap="round"/>
<path opacity="0.84" d="M481.975 160.455L535.527 213.94" stroke="#13924E" stroke-width="5" stroke-linecap="round"/>
<path opacity="0.32" d="M535.527 160.455L589.08 213.94" stroke="#13924E" stroke-width="5" stroke-linecap="round"/>
<path opacity="0.36" d="M589.08 160.455L642.633 213.94" stroke="#13924E" stroke-width="5" stroke-linecap="round"/>
<path opacity="0.78" d="M642.633 160.455L696.186 213.94" stroke="#13924E" stroke-width="5" stroke-linecap="round"/>
<path opacity="0.95" d="M696.186 160.455L749.738 213.94" stroke="#13924E" stroke-width="5" stroke-linecap="round"/>
<path opacity="0.28" d="M749.738 160.455L803.291 213.94" stroke="#13924E" stroke-width="5" stroke-linecap="round"/>
<path opacity="0.89" d="M803.291 160.455L856.844 213.94" stroke="#13924E" stroke-width="5" stroke-linecap="round"/>
<path opacity="0.38" d="M856.844 160.455L910.397 213.94" stroke="#13924E" stroke-width="5" stroke-linecap="round"/>
<path opacity="0.46" d="M910.397 160.455L963.949 213.94" stroke="#13924E" stroke-width="5" stroke-linecap="round"/>
<path opacity="0.83" d="M963.949 160.455L1017.5 213.94" stroke="#13924E" stroke-width="5" stroke-linecap="round"/>
<path opacity="0.4" d="M0 213.94L53.5527 267.425" stroke="#13924E" stroke-width="5" stroke-linecap="round"/>
<path opacity="0.99" d="M107.105 213.94L53.5527 267.425" stroke="#13924E" stroke-width="5" stroke-linecap="round"/>
<path opacity="0.18" d="M107.105 213.94L160.658 267.425" stroke="#13924E" stroke-width="5" stroke-linecap="round"/>
<path opacity="0.65" d="M214.211 213.94L160.658 267.425" stroke="#13924E" stroke-width="5" stroke-linecap="round"/>
<path opacity="0.38" d="M267.764 213.94L214.211 267.425" stroke="#13924E" stroke-width="5" stroke-linecap="round"/>
<path opacity="0.25" d="M267.764 213.94L321.316 267.425" stroke="#13924E" stroke-width="5" stroke-linecap="round"/>
<path opacity="0.66" d="M321.316 213.94L374.869 267.425" stroke="#13924E" stroke-width="5" stroke-linecap="round"/>
<path opacity="0.82" d="M428.422 213.94L374.869 267.425" stroke="#13924E" stroke-width="5" stroke-linecap="round"/>
<path opacity="0.34" d="M428.422 213.94L481.975 267.425" stroke="#13924E" stroke-width="5" stroke-linecap="round"/>
<path opacity="0.99" d="M535.527 213.94L481.975 267.425" stroke="#13924E" stroke-width="5" stroke-linecap="round"/>
<path opacity="0.22" d="M589.08 213.94L535.527 267.425" stroke="#13924E" stroke-width="5" stroke-linecap="round"/>
<path opacity="0.3" d="M589.08 213.94L642.633 267.425" stroke="#13924E" stroke-width="5" stroke-linecap="round"/>
<path opacity="0.15" d="M642.633 213.94L696.186 267.425" stroke="#13924E" stroke-width="5" stroke-linecap="round"/>
<path opacity="0.88" d="M749.738 213.94L696.186 267.425" stroke="#13924E" stroke-width="5" stroke-linecap="round"/>
<path opacity="0.41" d="M803.291 213.94L749.738 267.425" stroke="#13924E" stroke-width="5" stroke-linecap="round"/>
<path opacity="0.68" d="M856.844 213.94L803.291 267.425" stroke="#13924E" stroke-width="5" stroke-linecap="round"/>
<path opacity="0.1" d="M856.844 213.94L910.397 267.425" stroke="#13924E" stroke-width="5" stroke-linecap="round"/>
<path opacity="0.99" d="M963.949 213.94L910.397 267.425" stroke="#13924E" stroke-width="5" stroke-linecap="round"/>
<path opacity="0.96" d="M963.949 213.94L1017.5 267.425" stroke="#13924E" stroke-width="5" stroke-linecap="round"/>
<path opacity="0.96" d="M0 267.425L53.5527 320.91" stroke="#13924E" stroke-width="5" stroke-linecap="round"/>
<path opacity="0.94" d="M53.5527 267.425L107.105 320.91" stroke="#13924E" stroke-width="5" stroke-linecap="round"/>
<path opacity="0.66" d="M107.105 267.425L160.658 320.91" stroke="#13924E" stroke-width="5" stroke-linecap="round"/>
<path opacity="0.14" d="M160.658 267.425L214.211 320.91" stroke="#13924E" stroke-width="5" stroke-linecap="round"/>
<path opacity="0.88" d="M214.211 267.425L267.764 320.91" stroke="#13924E" stroke-width="5" stroke-linecap="round"/>
<path opacity="0.21" d="M321.316 267.425L267.764 320.91" stroke="#13924E" stroke-width="5" stroke-linecap="round"/>
<path opacity="0.51" d="M321.316 267.425L374.869 320.91" stroke="#13924E" stroke-width="5" stroke-linecap="round"/>
<path opacity="0.83" d="M374.869 267.425L428.422 320.91" stroke="#13924E" stroke-width="5" stroke-linecap="round"/>
<path opacity="0.81" d="M428.422 267.425L481.975 320.91" stroke="#13924E" stroke-width="5" stroke-linecap="round"/>
<path opacity="0.88" d="M535.527 267.425L481.975 320.91" stroke="#13924E" stroke-width="5" stroke-linecap="round"/>
<path opacity="0.82" d="M535.527 267.425L589.08 320.91" stroke="#13924E" stroke-width="5" stroke-linecap="round"/>
<path opacity="0.5" d="M589.08 267.425L642.633 320.91" stroke="#13924E" stroke-width="5" stroke-linecap="round"/>
<path opacity="0.44" d="M642.633 267.425L696.186 320.91" stroke="#13924E" stroke-width="5" stroke-linecap="round"/>
<path opacity="0.66" d="M696.186 267.425L749.738 320.91" stroke="#13924E" stroke-width="5" stroke-linecap="round"/>
<path opacity="0.17" d="M749.738 267.425L803.291 320.91" stroke="#13924E" stroke-width="5" stroke-linecap="round"/>
<path opacity="0.21" d="M803.291 267.425L856.844 320.91" stroke="#13924E" stroke-width="5" stroke-linecap="round"/>
<path opacity="0.08" d="M856.844 267.425L910.397 320.91" stroke="#13924E" stroke-width="5" stroke-linecap="round"/>
<path opacity="0.41" d="M963.949 267.425L910.397 320.91" stroke="#13924E" stroke-width="5" stroke-linecap="round"/>
<path opacity="0.35" d="M963.949 267.425L1017.5 320.91" stroke="#13924E" stroke-width="5" stroke-linecap="round"/>
<path opacity="0.27" d="M53.5527 320.91L0 374.395" stroke="#13924E" stroke-width="5" stroke-linecap="round"/>
<path opacity="0.39" d="M53.5527 320.91L107.105 374.395" stroke="#13924E" stroke-width="5" stroke-linecap="round"/>
<path opacity="0.91" d="M107.105 320.91L160.658 374.395" stroke="#13924E" stroke-width="5" stroke-linecap="round"/>
<path opacity="0.78" d="M214.211 320.91L160.658 374.395" stroke="#13924E" stroke-width="5" stroke-linecap="round"/>
<path opacity="0.32" d="M214.211 320.91L267.764 374.395" stroke="#13924E" stroke-width="5" stroke-linecap="round"/>
<path opacity="0.14" d="M321.316 320.91L267.764 374.395" stroke="#13924E" stroke-width="5" stroke-linecap="round"/>
<path opacity="0.18" d="M374.869 320.91L321.316 374.395" stroke="#13924E" stroke-width="5" stroke-linecap="round"/>
<path opacity="0.7" d="M374.869 320.91L428.422 374.395" stroke="#13924E" stroke-width="5" stroke-linecap="round"/>
<path opacity="0.74" d="M428.422 320.91L481.975 374.395" stroke="#13924E" stroke-width="5" stroke-linecap="round"/>
<path opacity="0.25" d="M481.975 320.91L535.527 374.395" stroke="#13924E" stroke-width="5" stroke-linecap="round"/>
<path opacity="0.75" d="M589.08 320.91L535.527 374.395" stroke="#13924E" stroke-width="5" stroke-linecap="round"/>
<path opacity="0.54" d="M589.08 320.91L642.633 374.395" stroke="#13924E" stroke-width="5" stroke-linecap="round"/>
<path opacity="0.23" d="M642.633 320.91L696.186 374.395" stroke="#13924E" stroke-width="5" stroke-linecap="round"/>
<path opacity="0.72" d="M696.186 320.91L749.738 374.395" stroke="#13924E" stroke-width="5" stroke-linecap="round"/>
<path opacity="0.29" d="M803.291 320.91L749.738 374.395" stroke="#13924E" stroke-width="5" stroke-linecap="round"/>
<path opacity="0.93" d="M803.291 320.91L856.844 374.395" stroke="#13924E" stroke-width="5" stroke-linecap="round"/>
<path opacity="0.7" d="M856.844 320.91L910.397 374.395" stroke="#13924E" stroke-width="5" stroke-linecap="round"/>
<path opacity="0.75" d="M910.397 320.91L963.949 374.395" stroke="#13924E" stroke-width="5" stroke-linecap="round"/>
<path opacity="0.58" d="M963.949 320.91L1017.5 374.395" stroke="#13924E" stroke-width="5" stroke-linecap="round"/>
<path opacity="0.64" d="M0 374.395L53.5527 427.88" stroke="#13924E" stroke-width="5" stroke-linecap="round"/>
<path opacity="0.13" d="M53.5527 374.395L107.105 427.88" stroke="#13924E" stroke-width="5" stroke-linecap="round"/>
<path opacity="0.47" d="M107.105 374.395L160.658 427.88" stroke="#13924E" stroke-width="5" stroke-linecap="round"/>
<path opacity="0.92" d="M160.658 374.395L214.211 427.88" stroke="#13924E" stroke-width="5" stroke-linecap="round"/>
<path opacity="0.72" d="M214.211 374.395L267.764 427.88" stroke="#13924E" stroke-width="5" stroke-linecap="round"/>
<path opacity="0.7" d="M267.764 374.395L321.316 427.88" stroke="#13924E" stroke-width="5" stroke-linecap="round"/>
<path opacity="0.56" d="M321.316 374.395L374.869 427.88" stroke="#13924E" stroke-width="5" stroke-linecap="round"/>
<path opacity="0.53" d="M374.869 374.395L428.422 427.88" stroke="#13924E" stroke-width="5" stroke-linecap="round"/>
<path opacity="0.45" d="M428.422 374.395L481.975 427.88" stroke="#13924E" stroke-width="5" stroke-linecap="round"/>
<path opacity="0.97" d="M481.975 374.395L535.527 427.88" stroke="#13924E" stroke-width="5" stroke-linecap="round"/>
<path opacity="0.27" d="M535.527 374.395L589.08 427.88" stroke="#13924E" stroke-width="5" stroke-linecap="round"/>
<path opacity="0.61" d="M589.08 374.395L642.633 427.88" stroke="#13924E" stroke-width="5" stroke-linecap="round"/>
<path opacity="0.94" d="M696.186 374.395L642.633 427.88" stroke="#13924E" stroke-width="5" stroke-linecap="round"/>
<path opacity="0.91" d="M696.186 374.395L749.738 427.88" stroke="#13924E" stroke-width="5" stroke-linecap="round"/>
<path opacity="0.28" d="M749.738 374.395L803.291 427.88" stroke="#13924E" stroke-width="5" stroke-linecap="round"/>
<path opacity="0.12" d="M803.291 374.395L856.844 427.88" stroke="#13924E" stroke-width="5" stroke-linecap="round"/>
<path opacity="0.18" d="M856.844 374.395L910.397 427.88" stroke="#13924E" stroke-width="5" stroke-linecap="round"/>
<path opacity="0.68" d="M910.397 374.395L963.949 427.88" stroke="#13924E" stroke-width="5" stroke-linecap="round"/>
<path opacity="0.4" d="M963.949 374.395L1017.5 427.88" stroke="#13924E" stroke-width="5" stroke-linecap="round"/>
<path opacity="0.07" d="M0 427.88L53.5527 481.365" stroke="#13924E" stroke-width="5" stroke-linecap="round"/>
<path opacity="0.72" d="M53.5527 427.88L107.105 481.365" stroke="#13924E" stroke-width="5" stroke-linecap="round"/>
<path opacity="0.76" d="M107.105 427.88L160.658 481.365" stroke="#13924E" stroke-width="5" stroke-linecap="round"/>
<path opacity="0.41" d="M160.658 427.88L214.211 481.365" stroke="#13924E" stroke-width="5" stroke-linecap="round"/>
<path opacity="0.07" d="M214.211 427.88L267.764 481.365" stroke="#13924E" stroke-width="5" stroke-linecap="round"/>
<path opacity="0.14" d="M267.764 427.88L321.316 481.365" stroke="#13924E" stroke-width="5" stroke-linecap="round"/>
<path opacity="0.15" d="M321.316 427.88L374.869 481.365" stroke="#13924E" stroke-width="5" stroke-linecap="round"/>
<path opacity="0.08" d="M374.869 427.88L428.422 481.365" stroke="#13924E" stroke-width="5" stroke-linecap="round"/>
<path opacity="0.93" d="M428.422 427.88L481.975 481.365" stroke="#13924E" stroke-width="5" stroke-linecap="round"/>
<path opacity="0.43" d="M481.975 427.88L535.527 481.365" stroke="#13924E" stroke-width="5" stroke-linecap="round"/>
<path opacity="0.97" d="M535.527 427.88L589.08 481.365" stroke="#13924E" stroke-width="5" stroke-linecap="round"/>
<path opacity="0.41" d="M589.08 427.88L642.633 481.365" stroke="#13924E" stroke-width="5" stroke-linecap="round"/>
<path opacity="0.9" d="M642.633 427.88L696.186 481.365" stroke="#13924E" stroke-width="5" stroke-linecap="round"/>
<path opacity="0.33" d="M696.186 427.88L749.738 481.365" stroke="#13924E" stroke-width="5" stroke-linecap="round"/>
<path opacity="0.7" d="M749.738 427.88L803.291 481.365" stroke="#13924E" stroke-width="5" stroke-linecap="round"/>
<path opacity="0.33" d="M803.291 427.88L856.844 481.365" stroke="#13924E" stroke-width="5" stroke-linecap="round"/>
<path opacity="0.53" d="M856.844 427.88L910.397 481.365" stroke="#13924E" stroke-width="5" stroke-linecap="round"/>
<path opacity="0.46" d="M910.397 427.88L963.949 481.365" stroke="#13924E" stroke-width="5" stroke-linecap="round"/>
<path opacity="0.85" d="M1017.5 427.88L963.949 481.365" stroke="#13924E" stroke-width="5" stroke-linecap="round"/>
<path opacity="0.93" d="M53.5527 481.365L0 534.85" stroke="#13924E" stroke-width="5" stroke-linecap="round"/>
<path opacity="0.92" d="M53.5527 481.365L107.105 534.85" stroke="#13924E" stroke-width="5" stroke-linecap="round"/>
<path opacity="0.19" d="M160.658 481.365L107.105 534.85" stroke="#13924E" stroke-width="5" stroke-linecap="round"/>
<path opacity="0.68" d="M160.658 481.365L214.211 534.85" stroke="#13924E" stroke-width="5" stroke-linecap="round"/>
<path opacity="0.84" d="M214.211 481.365L267.764 534.85" stroke="#13924E" stroke-width="5" stroke-linecap="round"/>
<path opacity="0.85" d="M267.764 481.365L321.316 534.85" stroke="#13924E" stroke-width="5" stroke-linecap="round"/>
<path opacity="0.2" d="M321.316 481.365L374.869 534.85" stroke="#13924E" stroke-width="5" stroke-linecap="round"/>
<path opacity="0.72" d="M374.869 481.365L428.422 534.85" stroke="#13924E" stroke-width="5" stroke-linecap="round"/>
<path opacity="0.13" d="M428.422 481.365L481.975 534.85" stroke="#13924E" stroke-width="5" stroke-linecap="round"/>
<path opacity="0.47" d="M481.975 481.365L535.527 534.85" stroke="#13924E" stroke-width="5" stroke-linecap="round"/>
<path opacity="0.75" d="M535.527 481.365L589.08 534.85" stroke="#13924E" stroke-width="5" stroke-linecap="round"/>
<path opacity="0.35" d="M642.633 481.365L589.08 534.85" stroke="#13924E" stroke-width="5" stroke-linecap="round"/>
<path opacity="0.4" d="M642.633 481.365L696.186 534.85" stroke="#13924E" stroke-width="5" stroke-linecap="round"/>
<path opacity="0.88" d="M696.186 481.365L749.738 534.85" stroke="#13924E" stroke-width="5" stroke-linecap="round"/>
<path opacity="0.39" d="M749.738 481.365L803.291 534.85" stroke="#13924E" stroke-width="5" stroke-linecap="round"/>
<path opacity="0.65" d="M803.291 481.365L856.844 534.85" stroke="#13924E" stroke-width="5" stroke-linecap="round"/>
<path opacity="0.31" d="M910.397 481.365L856.844 534.85" stroke="#13924E" stroke-width="5" stroke-linecap="round"/>
<path opacity="0.82" d="M910.397 481.365L963.949 534.85" stroke="#13924E" stroke-width="5" stroke-linecap="round"/>
<path opacity="0.54" d="M963.949 481.365L1017.5 534.85" stroke="#13924E" stroke-width="5" stroke-linecap="round"/>
<path opacity="0.15" d="M0 534.85L53.5527 588.335" stroke="#13924E" stroke-width="5" stroke-linecap="round"/>
<path opacity="0.45" d="M53.5527 534.85L107.105 588.335" stroke="#13924E" stroke-width="5" stroke-linecap="round"/>
<path opacity="0.54" d="M107.105 534.85L160.658 588.335" stroke="#13924E" stroke-width="5" stroke-linecap="round"/>
<path opacity="0.55" d="M160.658 534.85L214.211 588.335" stroke="#13924E" stroke-width="5" stroke-linecap="round"/>
<path opacity="0.13" d="M214.211 534.85L267.764 588.335" stroke="#13924E" stroke-width="5" stroke-linecap="round"/>
<path opacity="0.56" d="M267.764 534.85L321.316 588.335" stroke="#13924E" stroke-width="5" stroke-linecap="round"/>
<path opacity="0.79" d="M321.316 534.85L374.869 588.335" stroke="#13924E" stroke-width="5" stroke-linecap="round"/>
<path opacity="0.57" d="M428.422 534.85L374.869 588.335" stroke="#13924E" stroke-width="5" stroke-linecap="round"/>
<path opacity="0.96" d="M428.422 534.85L481.975 588.335" stroke="#13924E" stroke-width="5" stroke-linecap="round"/>
<path opacity="0.3" d="M481.975 534.85L535.527 588.335" stroke="#13924E" stroke-width="5" stroke-linecap="round"/>
<path opacity="0.65" d="M589.08 534.85L535.527 588.335" stroke="#13924E" stroke-width="5" stroke-linecap="round"/>
<path opacity="0.92" d="M589.08 534.85L642.633 588.335" stroke="#13924E" stroke-width="5" stroke-linecap="round"/>
<path opacity="0.93" d="M642.633 534.85L696.186 588.335" stroke="#13924E" stroke-width="5" stroke-linecap="round"/>
<path opacity="0.77" d="M696.186 534.85L749.738 588.335" stroke="#13924E" stroke-width="5" stroke-linecap="round"/>
<path opacity="0.62" d="M749.738 534.85L803.291 588.335" stroke="#13924E" stroke-width="5" stroke-linecap="round"/>
<path opacity="0.76" d="M803.291 534.85L856.844 588.335" stroke="#13924E" stroke-width="5" stroke-linecap="round"/>
<path opacity="0.17" d="M856.844 534.85L910.397 588.335" stroke="#13924E" stroke-width="5" stroke-linecap="round"/>
<path opacity="0.36" d="M910.397 534.85L963.949 588.335" stroke="#13924E" stroke-width="5" stroke-linecap="round"/>
<path opacity="0.8" d="M963.949 534.85L1017.5 588.335" stroke="#13924E" stroke-width="5" stroke-linecap="round"/>
</svg>
